<?xml version="1.0" standalone="no"?>
<!DOCTYPE svg PUBLIC "-//W3C//DTD SVG 20010904//EN"
 "http://www.w3.org/TR/2001/REC-SVG-20010904/DTD/svg10.dtd">
<svg version="1.0" xmlns="http://www.w3.org/2000/svg"
 width="462.000000pt" height="150.000000pt" viewBox="0 0 462.000000 150.000000"
 preserveAspectRatio="xMidYMid meet">
<metadata>
Created by potrace 1.16, written by Peter Selinger 2001-2019
</metadata>
<g transform="translate(0.000000,150.000000) scale(0.100000,-0.100000)"
fill="#000000" stroke="none">
<path d="M3956 1321 l-28 -30 -172 2 c-188 1 -271 -11 -312 -46 l-26 -22 22
-28 22 -27 26 19 c44 31 100 41 237 41 101 0 144 5 193 20 36 11 92 20 128 20
35 0 64 2 64 4 0 2 7 20 15 40 l15 36 -78 0 c-73 0 -80 -2 -106 -29z"/>
<path d="M3983 1231 c-66 -5 -85 -10 -97 -26 -9 -11 -16 -23 -16 -26 0 -3 -60
-5 -132 -5 -124 1 -136 -1 -178 -24 -49 -28 -58 -45 -37 -74 14 -19 15 -19 48
5 32 22 45 24 177 27 126 3 146 6 163 23 15 15 33 19 80 19 59 0 60 1 75 35
16 38 18 56 7 53 -5 -1 -45 -4 -90 -7z"/>
<path d="M3424 1119 c-16 -17 -51 -49 -78 -72 l-49 -41 -58 62 -58 62 -113
-73 c-147 -95 -214 -135 -317 -191 l-85 -45 -67 64 c-123 116 -241 184 -366
210 -129 28 -300 14 -420 -34 l-52 -20 -46 20 c-148 66 -384 63 -539 -5 -51
-23 -53 -23 -87 -5 -79 40 -157 53 -329 53 -156 1 -168 0 -226 -25 -55 -23
-65 -24 -87 -12 -43 22 -148 43 -217 42 l-65 0 61 -28 c100 -46 183 -108 284
-211 52 -53 114 -112 138 -132 l43 -36 -37 -21 c-102 -60 -212 -92 -384 -112
-141 -15 -153 -25 -45 -34 181 -15 379 9 519 63 l74 29 74 -26 c68 -24 85 -26
248 -26 167 0 178 1 238 27 l63 26 77 -24 c105 -33 270 -46 436 -34 72 6 146
14 165 20 26 7 48 6 90 -8 43 -13 91 -17 211 -16 139 0 163 3 232 26 l77 26
57 -19 c96 -32 181 -42 304 -36 154 7 270 46 363 124 16 12 34 23 40 23 7 0 3
-6 -8 -12 -11 -6 -32 -24 -47 -40 -14 -15 -31 -28 -38 -28 -6 0 -10 -6 -8 -12
6 -16 142 -52 146 -38 2 5 9 10 16 10 6 0 18 9 26 19 7 11 17 18 20 16 4 -2
12 13 19 33 8 20 20 44 28 54 12 13 12 23 2 57 -7 23 -16 41 -21 41 -5 0 -4 9
2 19 14 27 3 48 -31 60 -16 5 -29 16 -29 24 0 8 -11 19 -25 25 -29 13 -31 24
-10 42 23 19 18 40 -20 77 -19 19 -35 41 -35 50 0 10 -5 13 -17 8 -15 -5 -16
-4 -5 6 6 7 12 17 12 21 0 16 -17 7 -46 -23z m-2518 -74 c38 -19 79 -43 92
-53 l24 -18 -49 -39 c-26 -21 -74 -63 -105 -93 l-57 -55 -50 55 c-28 31 -74
73 -101 94 -28 21 -50 41 -50 45 0 19 164 98 206 99 12 0 52 -16 90 -35z m619
11 c28 -13 67 -37 87 -53 l37 -30 -79 -62 c-43 -33 -91 -77 -106 -97 l-27 -35
-71 69 c-39 38 -85 80 -102 93 l-31 25 54 38 c51 36 141 75 173 76 8 0 38 -11
65 -24z m663 -19 c29 -17 112 -88 184 -156 114 -109 128 -126 113 -137 -9 -7
-66 -31 -127 -54 l-111 -41 -53 36 c-29 20 -86 69 -126 108 -40 40 -101 97
-135 127 l-62 56 52 34 c67 44 144 72 182 65 16 -3 54 -20 83 -38z m907 -17
c-20 -39 -20 -39 25 -88 l39 -43 28 18 c15 9 30 20 33 24 8 10 50 30 50 24 0
-20 -416 -265 -451 -265 -16 0 -137 105 -129 113 3 2 33 19 68 36 73 37 260
148 312 185 19 14 36 25 38 26 1 0 -4 -13 -13 -30z m-2016 -98 l34 -28 -89
-77 c-134 -115 -125 -111 -165 -78 l-33 28 56 52 c66 61 151 130 158 131 3 0
21 -13 39 -28z m627 -3 l29 -31 -40 -34 c-22 -20 -70 -60 -107 -91 l-68 -55
-34 30 -34 30 36 34 c58 55 171 148 180 148 5 0 21 -14 38 -31z m-532 -97 c25
-27 71 -69 101 -93 l56 -44 -28 -23 c-48 -38 -131 -64 -184 -57 -46 6 -145 48
-182 77 -18 13 -14 18 50 70 37 31 81 70 97 87 17 17 33 31 37 31 5 0 29 -22
53 -48z m659 -25 c96 -85 158 -129 227 -161 l50 -23 -43 -6 c-108 -15 -255
-19 -312 -8 -63 12 -205 74 -205 89 0 5 24 28 53 50 28 23 72 61 97 86 24 25
46 46 48 46 1 0 40 -33 85 -73z m1260 -133 c-27 -12 -70 -29 -96 -38 -47 -16
-49 -15 -98 10 -28 14 -48 28 -45 32 4 3 46 27 94 52 l87 46 54 -41 53 -40
-49 -21z m-531 44 c17 -11 53 -33 80 -48 l51 -28 -59 -17 c-91 -27 -220 -31
-285 -10 -30 10 -58 20 -63 23 -5 3 38 21 95 42 57 20 113 41 124 48 26 15 22
15 57 -10z"/>
<path d="M3895 1061 l-15 -29 -129 -4 c-121 -3 -131 -5 -155 -27 -28 -26 -34
-59 -14 -79 9 -9 17 -7 34 9 28 27 81 38 172 39 50 0 80 5 97 16 14 9 48 19
76 23 49 6 53 8 65 44 l13 37 -64 0 c-61 0 -65 -2 -80 -29z"/>
<path d="M270 320 l0 -60 100 0 c80 0 102 3 106 15 8 20 82 20 105 -1 9 -8 29
-14 44 -12 l26 3 -43 58 c-38 52 -45 57 -79 57 -33 0 -42 -5 -70 -45 -31 -44
-34 -45 -86 -45 l-53 0 0 45 c0 41 -2 45 -25 45 -24 0 -25 -3 -25 -60z"/>
<path d="M590 365 c0 -10 11 -15 35 -15 35 0 35 0 35 -45 0 -41 2 -45 25 -45
23 0 25 4 25 45 0 43 1 45 30 45 27 0 30 -3 30 -29 0 -48 22 -61 100 -61 49 0
73 4 84 16 15 14 16 14 16 0 0 -10 9 -16 25 -16 16 0 25 6 25 15 0 11 12 15
45 15 33 0 45 -4 45 -15 0 -21 105 -21 114 0 7 20 94 21 102 1 4 -11 29 -15
109 -15 57 -1 110 2 119 5 19 7 22 64 4 64 -9 0 -9 3 1 9 8 5 11 16 8 25 -6
14 -21 16 -94 14 l-88 -3 0 -30 c0 -30 0 -30 63 -33 34 -2 62 -7 62 -13 0 -5
-29 -8 -69 -7 -69 3 -69 3 -98 45 -25 38 -32 43 -68 43 -37 -1 -43 -4 -75 -52
l-35 -52 -3 39 c-5 62 -12 65 -133 65 l-109 0 0 -40 c0 -34 -4 -41 -25 -46
-14 -3 -36 -3 -50 0 -21 5 -25 12 -25 46 l0 40 -115 0 c-96 0 -115 -3 -115
-15z"/>
<path d="M1690 320 l0 -60 75 0 c45 0 75 4 75 10 0 7 6 7 19 0 21 -11 112 -13
148 -4 12 3 23 15 25 28 2 11 6 20 11 19 4 -2 37 -3 73 -3 45 0 63 -3 58 -11
-4 -7 -28 -9 -70 -4 -53 5 -64 4 -64 -8 0 -8 7 -18 16 -21 20 -8 138 -8 158 0
19 7 22 64 4 64 -9 0 -9 3 1 9 8 5 11 16 8 25 -6 14 -21 16 -94 14 -84 -3 -87
-4 -94 -28 l-6 -25 -4 25 c-4 24 -8 25 -74 28 -103 4 -115 0 -115 -48 l0 -40
-50 0 -50 0 0 45 c0 41 -2 45 -25 45 -24 0 -25 -3 -25 -60z"/>
<path d="M2382 323 l-43 -58 26 -3 c15 -2 35 4 44 12 23 21 97 21 105 1 4 -11
20 -15 56 -15 l50 0 0 41 0 41 49 -41 c30 -25 59 -41 75 -41 25 0 26 2 26 60
0 57 -1 60 -25 60 -21 0 -25 -5 -25 -31 l0 -30 -37 30 c-25 21 -49 31 -70 31
l-33 0 0 -57 0 -56 -41 56 c-36 52 -43 57 -78 57 -34 0 -41 -5 -79 -57z"/>
<path d="M2791 361 c-16 -29 -13 -67 5 -85 11 -11 35 -16 83 -16 87 0 103 12
99 70 l-3 45 -87 3 c-78 2 -88 1 -97 -17z"/>
<path d="M2990 320 l0 -60 85 0 c69 0 85 3 85 15 0 12 -13 15 -60 15 -33 0
-60 4 -60 10 0 6 27 10 60 10 46 0 60 3 60 15 0 10 -16 15 -62 18 l-63 3 63 2
c48 2 62 5 62 17 0 12 -16 15 -85 15 l-85 0 0 -60z"/>
<path d="M3330 320 l0 -60 85 0 c69 0 85 3 85 15 0 12 -13 15 -60 15 -33 0
-60 4 -60 10 0 6 27 10 60 10 46 0 60 3 60 15 0 10 -16 15 -62 18 l-63 3 63 2
c48 2 62 5 62 17 0 12 -16 15 -85 15 l-85 0 0 -60z"/>
<path d="M3514 366 c-15 -40 -1 -51 71 -56 43 -3 65 -8 57 -13 -7 -5 -40 -6
-73 -2 -49 6 -59 4 -59 -8 0 -8 7 -18 16 -21 20 -8 138 -8 158 0 19 7 22 64 4
64 -9 0 -9 3 1 9 8 5 11 16 8 25 -9 22 -175 24 -183 2z"/>
</g>
</svg>
